# xmcd
#
# Track frame offsets: 
#        150
#        17317
#        31280
#        49707
#        63367
#        76522
#        92030
#        105070
#        120722
#        129542
#        145992
#        163005
#
# Disc length: 2363 seconds
#
# Revision: 2
# Processed by: cddbd v1.5.2PL0 Copyright (c) Steve Scherf et al.
# Submitted via: ExactAudioCopy v0.95b4
#
DISCID=8709390c
DTITLE=Eleven Hundred Springs - Welcome To... Eleven Hundred Springs
DYEAR=1999
DGENRE=Country
TTITLE0=The Only Thing She Left Me (Was The Blues)
TTITLE1=Thing For You
TTITLE2=Miles
TTITLE3=Gone Crazy Blues
TTITLE4=Center Ridge Breakdown
TTITLE5=Anywhere I'm Loving You
TTITLE6=This one Wish
TTITLE7=A Few Words To Remember Me By
TTITLE8=Springtime in Texas
TTITLE9=One More Chance
TTITLE10=Queen of Canton Street
TTITLE11=Raise Hell, Drink Beer
EXTD=
EXTT0=
EXTT1=
EXTT2=
EXTT3=
EXTT4=
EXTT5=
EXTT6=
EXTT7=
EXTT8=
EXTT9=
EXTT10=
EXTT11=
PLAYORDER=
